HIERARCHY
ROOT Hips
{
  OFFSET 206.468 35.1882 -219.895
  CHANNELS 6 Xposition Yposition Zposition Zrotation Xrotation Yrotation
  JOINT ToSpine
  {
    OFFSET -2.69724 7.43032 -0.144315
    CHANNELS 3 Zrotation Xrotation Yrotation
    JOINT Spine
    {
      OFFSET -0.0310711 10.7595 1.96963
      CHANNELS 3 Zrotation Xrotation Yrotation
      JOINT Spine1
      {
        OFFSET 19.9056 3.91189 0.764692
        CHANNELS 3 Zrotation Xrotation Yrotation
        JOINT Neck
        {
          OFFSET 25.9749 7.03908 -0.130764
          CHANNELS 3 Zrotation Xrotation Yrotation
          JOINT Head
          {
            OFFSET 9.52751 0.295786 -0.907742
            CHANNELS 3 Zrotation Xrotation Yrotation
            End Site
            {
              OFFSET 16.4037 0.713936 2.7358
            }
          }
        }
        JOINT LeftShoulder
        {
          OFFSET 17.7449 4.33886 11.7777
          CHANNELS 3 Zrotation Xrotation Yrotation
          JOINT LeftArm
          {
            OFFSET 0.911315 1.27913 9.80584
            CHANNELS 3 Zrotation Xrotation Yrotation
            JOINT LeftForeArm
            {
              OFFSET 28.6126 1.18197 -3.53199
              CHANNELS 3 Zrotation Xrotation Yrotation
              JOINT LeftHand
              {
                OFFSET 27.5088 0.0218783 0.327423
                CHANNELS 3 Zrotation Xrotation Yrotation
                End Site
                {
                  OFFSET 18.6038 -0.000155887 0.382096
                }
              }
            }
          }
        }
        JOINT RightShoulder
        {
          OFFSET 17.1009 2.89543 -12.2328
          CHANNELS 3 Zrotation Xrotation Yrotation
          JOINT RightArm
          {
            OFFSET 1.4228 0.178766 -10.211
            CHANNELS 3 Zrotation Xrotation Yrotation
            JOINT RightForeArm
            {
              OFFSET 28.733 1.87905 2.64907
              CHANNELS 3 Zrotation Xrotation Yrotation
              JOINT RightHand
              {
                OFFSET 27.4588 0.290562 -0.101845
                CHANNELS 3 Zrotation Xrotation Yrotation
                End Site
                {
                  OFFSET 17.8396 -0.255518 -0.000602873
                }
              }
            }
          }
        }
      }
    }
  }
  JOINT LeftUpLeg
  {
    OFFSET -5.61296 -2.22332 -10.2353
    CHANNELS 3 Zrotation Xrotation Yrotation
    JOINT LeftLeg
    {
      OFFSET 2.56703 -44.7417 -7.93097
      CHANNELS 3 Zrotation Xrotation Yrotation
      JOINT LeftFoot
      {
        OFFSET 3.16933 -46.5642 -3.96578
        CHANNELS 3 Zrotation Xrotation Yrotation
        JOINT LeftToeBase
        {
          OFFSET 0.346054 -6.02161 12.8035
          CHANNELS 3 Zrotation Xrotation Yrotation
          End Site
          {
            OFFSET 0.134235 -1.35082 5.13018
          }
        }
      }
    }
  }
  JOINT RightUpLeg
  {
    OFFSET -5.7928 -1.72406 10.6446
    CHANNELS 3 Zrotation Xrotation Yrotation
    JOINT RightLeg
    {
      OFFSET -2.57161 -44.7178 -7.85259
      CHANNELS 3 Zrotation Xrotation Yrotation
      JOINT RightFoot
      {
        OFFSET -3.10148 -46.5936 -4.03391
        CHANNELS 3 Zrotation Xrotation Yrotation
        JOINT RightToeBase
        {
          OFFSET -0.0828122 -6.13587 12.8035
          CHANNELS 3 Zrotation Xrotation Yrotation
          End Site
          {
            OFFSET -0.131328 -1.35082 5.13018
          }
        }
      }
    }
  }
}
MOTION
Frames:	17
Frame Time:	0.0333333
206.468 35.1882 -219.895 -97.1865 -54.7875 174.663 -70.1915 0 88.8779 156.913 51.5971 -70.0072 11.2849 24.5661 -2.38792 -160.517 17.9337 177.218 -140.482 55.0181 176.847 1.11594 -8.78517 -15.3194 -52.4232 35.8383 -175.034 50.781 37.5145 -61.303 -16.9306 -0.978768 8.48881 -0.183626 5.16303 19.7772 -54.0302 -30.6085 146.164 89.9939 -4.6216 89.8215 -18.2997 2.71686 -16.5524 2.98393 29.6673 65.9877 -170.677 8.86594 131.761 18.3841 -1.36192 -2.20956 -15.0742 -51.9089 -0.117883 3.21601 -33.6089 118.597 170.67 9.89406 -130.522 -15.4063 -19.7118 0.784901 12.8535 -31.8329 -9.60459 
206.457 35.2178 -219.887 -97.2776 -54.911 174.545 -70.1915 0 88.8779 156.845 51.4486 -70.1065 11.0016 24.4765 -2.06454 -160.248 17.9343 177.152 -140.33 54.936 176.49 1.11745 -8.79354 -15.4767 -52.4718 36.3429 -174.958 52.0914 38.4598 -61.8916 -17.2481 -0.691476 6.43326 -0.177498 5.20746 19.5895 -53.7918 -30.6983 146.355 90.5554 -4.72354 89.8552 -18.3476 2.74455 -16.6737 2.8659 29.522 66.044 -170.676 8.88186 131.666 18.2124 -1.70836 -2.16115 -14.8714 -51.4938 0.0398812 3.04351 -33.821 118.469 170.669 9.85643 -130.223 -15.6905 -19.8719 0.758653 12.6908 -31.0979 -10.674 
206.727 35.3062 -219.82 -99.1325 -56.0554 172.497 -70.1915 0 88.8779 156.683 50.7444 -70.3175 11.5918 23.9533 -1.30963 -160.053 18.9038 177.005 -139.911 55.651 174.767 1.10877 -9.17716 -16.7462 -53.1354 35.6163 -174.708 52.4512 38.4874 -62.1769 -17.7178 -0.369979 4.20381 -0.11345 4.90875 18.7142 -54.8273 -31.8096 146.381 94.386 -5.81896 90.1424 -17.8537 2.1453 -13.4887 1.17501 27.2364 68.6774 -170.691 9.11702 133.55 17.6071 -2.32518 -2.04725 -14.7423 -51.2851 0.213181 2.54146 -35.3762 120.582 170.663 10.0912 -129.265 -15.5202 -19.4536 0.796274 12.4444 -30.7884 -8.93392 
206.777 35.16 -219.746 -99.3489 -56.2018 172.451 -70.1915 0 88.8779 156.554 50.3674 -70.109 11.0533 23.8029 -1.03141 -159.607 18.9103 176.883 -140.519 55.8013 175.31 1.11189 -9.1155 -16.6628 -53.0167 35.7175 -174.536 52.7588 38.4394 -62.4569 -17.2484 -0.513959 5.2411 -0.156721 5.22912 19.1483 -54.6732 -31.6556 146.031 92.0693 -6.20331 89.9208 -16.8386 2.26577 -15.03 1.09902 26.4331 70.1267 -170.738 9.62979 137.13 17.5699 -3.71505 -1.93194 -15.8377 -51.953 -2.53082 2.38289 -35.4743 120.996 170.661 9.96307 -128.736 -15.3603 -19.5734 0.796506 12.576 -31.143 -9.0555 
206.754 35.1743 -219.752 -99.2384 -56.1518 172.507 -70.1915 0 88.8779 156.323 50.5392 -70.0563 11.361 23.736 -1.11912 -159.248 18.7454 176.358 -139.205 55.3531 174.638 1.10987 -9.13945 -16.6068 -53.3037 35.8703 -174.297 52.5801 38.2443 -62.4081 -17.6507 -0.518421 5.18747 -0.179254 5.3719 19.389 -54.4333 -31.0549 146.078 87.75 -6.45536 89.4725 -15.2363 2.58869 -18.7815 1.19716 26.5516 69.9836 -170.732 9.59579 136.771 17.4526 -4.18179 -1.88446 -15.4574 -51.3988 -2.01987 2.45704 -35.4002 120.741 170.662 9.99575 -129.296 -15.9802 -19.1726 0.792997 12.7423 -31.6501 -8.94606 
206.79 35.0887 -219.763 -99.2815 -56.0558 172.426 -70.1915 0 88.8779 156.465 50.5098 -70.2674 11.3444 23.8697 -0.847591 -159.257 18.9966 176.408 -138.96 55.543 174.297 1.09576 -9.38284 -16.7501 -53.4677 35.9265 -174.109 53.0689 38.4259 -62.7189 -17.4847 -0.457735 4.81948 -0.153385 5.23833 19.0699 -53.9349 -31.0462 146.384 81.8439 -6.81362 88.7851 -12.2158 2.52629 -22.5279 1.11173 26.2763 71.2224 -170.767 9.93875 138.767 18.007 -1.12475 -2.18818 -17.8728 -55.2831 -4.32481 2.67529 -35.2105 120.897 170.663 9.87158 -129.478 -16.3491 -18.4697 0.82786 13.0711 -32.5636 -9.1126 
206.819 34.975 -219.546 -97.4811 -56.6635 173.526 -70.1915 0 88.8779 155.117 50.9694 -68.8858 10.5389 23.3622 -1.40693 -158.229 18.5867 175.757 -138.959 55.1284 174.606 1.10358 -9.16645 -16.0935 -53.0231 36.4222 -173.688 52.7467 37.9894 -62.677 -18.8212 -0.452957 4.56291 -0.253211 5.92035 19.9925 -53.239 -29.5487 146 75.5193 -6.32152 88.2215 -8.87397 2.28756 -27.377 1.71119 25.4404 72.4359 -170.785 9.82167 139.632 18.246 -1.6071 -2.17342 -17.7514 -55.3163 -3.94654 4.62584 -35.7822 123.012 170.66 9.63919 -128.317 -15.9365 -18.4184 0.848782 13.0189 -32.5299 -8.48975 
206.805 35.0074 -219.479 -97.1981 -56.4837 173.964 -70.1915 0 88.8779 155.465 51.6994 -68.9836 11.7804 23.7318 -0.91135 -159.584 18.9325 176.928 -139.807 55.6888 174.943 1.0856 -9.54022 -16.7197 -53.5633 35.8757 -173.994 52.9765 38.2196 -62.7464 -18.7953 -0.338054 3.86042 -0.141376 5.09278 19.0316 -52.9498 -27.603 146.591 65.6187 -5.37439 87.5794 -2.60937 0.938034 -32.6766 1.61428 25.799 72.1506 -170.794 9.88046 140.006 18.6862 -1.79388 -2.20387 -18.0883 -55.4292 -4.73591 4.64008 -35.445 122.659 170.659 9.53414 -127.706 -15.7738 -18.7516 0.832333 12.9525 -32.0005 -10.2005 
206.723 35.1086 -219.446 -96.8595 -56.4106 174.254 -70.1915 0 88.8779 155.545 51.619 -69.0388 11.5834 23.7547 -1.0948 -160.086 18.7805 177.119 -140.478 55.6327 175.082 1.10005 -9.28867 -16.5367 -53.2977 35.8544 -174.314 53.6821 38.9255 -62.9695 -17.089 -0.310232 3.89286 -0.134396 4.98461 19.0419 -51.9871 -26.8048 146.612 52.2917 -4.73603 86.5434 7.92641 -2.32062 -35.5941 1.44562 25.9592 72.3242 -170.76 9.80883 138.385 18.3197 -3.18636 -2.04445 -16.6182 -54.4991 -1.72962 4.5101 -35.3401 122.252 170.659 9.56452 -127.546 -15.9041 -18.7323 0.827904 13.1445 -32.4944 -10.6102 
206.823 35.1579 -219.523 -96.2098 -56.3296 174.888 -70.1915 0 88.8779 155.491 51.9151 -68.9244 11.7418 23.7701 -1.10902 -160.525 18.6245 177.852 -141.991 55.8859 176.603 1.1093 -9.15759 -16.6677 -53.3628 35.8754 -174.413 53.5412 38.7066 -62.963 -18.2001 -0.228487 3.23614 -0.131372 5.07676 18.8514 -51.2118 -28.8943 146.379 41.3783 -4.48105 85.2647 18.1456 -5.1227 -32.7397 2.0295 25.9367 72.5974 -170.756 9.79951 138.192 18.1984 -3.44171 -2.0112 -16.1173 -54.3865 -0.403657 5.15592 -35.0022 122.007 170.66 9.80181 -128.642 -15.4968 -18.4775 0.863018 13.081 -32.6013 -9.0616 
206.798 35.1472 -219.46 -96.1836 -56.4786 175.058 -70.1915 0 88.8779 155.249 51.7359 -68.6625 11.6239 23.542 -0.872794 -159.733 18.7917 177.22 -139.929 55.6879 175.733 1.11994 -9.02048 -16.8662 -53.6848 35.5847 -173.895 53.4699 38.3285 -63.0969 -17.8613 -0.24015 3.34148 -0.151822 5.47088 18.7344 -50.4691 -27.512 147.644 26.3184 -3.97048 82.5284 31.2905 -7.45507 -27.0954 2.23066 25.6914 72.0746 -170.779 9.85627 139.332 18.4656 -2.41994 -2.12556 -17.1927 -55.0349 -2.72839 4.92288 -35.1431 121.881 170.659 9.66809 -127.881 -15.5633 -18.5119 0.857909 13.0742 -32.268 -10.6793 
206.798 35.1569 -219.5 -95.6191 -56.3146 175.619 -70.1915 0 88.8779 155.166 51.6141 -68.535 11.0014 23.5381 -1.47893 -159.105 18.4912 176.177 -139.631 55.235 175.32 1.10583 -9.06116 -15.7101 -53.2567 36.5626 -173.87 53.6539 38.2002 -63.3147 -18.037 -0.236181 3.29968 -0.223421 5.67815 19.7917 -49.7127 -28.6559 146.759 13.542 -2.05587 83.2001 40.2634 -7.04393 -19.7444 2.77539 25.9834 71.7659 -170.758 9.75283 138.289 17.9896 -2.74841 -2.05036 -16.6232 -54.6196 -1.60119 5.38575 -34.8905 121.499 170.661 9.77847 -128.714 -15.3865 -18.5528 0.862676 13.0181 -32.2962 -9.70521 
206.732 35.1326 -219.422 -95.8871 -56.5666 175.337 -70.1915 0 88.8779 155.28 51.9721 -68.6792 11.8993 23.6042 -0.868867 -159.709 18.9393 177.2 -140.112 55.8769 175.795 1.10449 -9.2195 -16.5582 -53.6602 35.8201 -174.234 53.1394 38.1274 -62.9321 -18.2647 -0.274411 3.52155 -0.14682 5.26409 18.9061 -49.1369 -29.7535 147.455 15.3553 -2.44341 82.3983 43.9171 -7.89824 -20.0979 2.36576 25.6325 71.9512 -170.766 9.78051 138.676 18.0321 -2.82129 -2.04835 -16.9131 -54.8919 -2.108 4.92663 -35.2181 121.77 170.66 9.6795 -128.091 -15.3633 -18.9101 0.840136 12.9315 -31.909 -10.3331 
206.707 35.159 -219.395 -95.8492 -56.5094 175.395 -70.1915 0 88.8779 155.255 51.7983 -68.6984 11.5433 23.5428 -0.767932 -159.026 18.8118 176.68 -138.057 55.2653 174.462 1.13073 -8.82777 -16.7322 -53.3971 35.3319 -174.122 49.9339 35.9463 -61.4819 -20.2955 -0.704658 5.77816 -0.169999 5.43677 19.1236 -48.3936 -29.0549 147.566 8.87032 -1.54171 82.7885 50.3312 -7.36647 -16.186 2.47431 25.6592 71.8322 -170.773 9.81827 139.021 17.9537 -2.22915 -2.09023 -17.4243 -55.09 -3.313 4.77927 -35.3872 121.816 170.659 9.60842 -127.588 -15.6921 -18.8592 0.828556 13.0078 -32.0753 -10.637 
206.669 35.1675 -219.356 -95.6686 -56.4368 175.507 -70.1915 0 88.8779 155.308 52.0418 -68.8546 11.867 23.6552 -0.751219 -159.265 18.9367 176.53 -137.644 55.2583 173.906 1.12068 -8.96898 -16.6271 -53.458 35.3236 -174.329 49.4477 35.8 -61.1603 -19.8678 -0.71964 5.95559 -0.146993 5.32588 18.8279 -48.7689 -28.115 147.47 -7.54543 0.195717 84.2513 56.9065 -2.28377 -4.62968 2.2528 25.9797 71.9307 -170.751 9.74543 137.914 17.9687 -3.07677 -2.02084 -16.6021 -54.7697 -1.3638 4.6638 -35.2787 121.693 170.66 9.60298 -127.68 -15.8968 -18.7227 0.828911 13.096 -32.3159 -10.7685 
206.69 35.0887 -219.317 -95.7449 -56.386 175.575 -70.1915 0 88.8779 155.472 51.97 -68.8274 11.867 23.7296 -0.686547 -159.18 18.9388 176.649 -137.898 55.3502 174.241 1.11224 -9.09596 -16.5717 -53.3546 35.548 -174.4 50.9688 36.8474 -61.8304 -19.2415 -0.533226 4.98031 -0.140784 5.21905 18.8474 -48.1765 -25.8994 147.535 -8.84418 0.196693 84.8283 62.1611 -2.22643 -4.09994 2.52402 26.0167 71.345 -170.784 9.78847 139.557 18.576 -1.64642 -2.20531 -18.1397 -55.5479 -4.72704 4.63913 -35.2557 121.649 170.66 9.54172 -127.562 -16.1527 -18.521 0.832339 13.2347 -32.681 -11.0624 
206.685 35.1412 -219.308 -95.7205 -56.3567 175.61 -70.1915 0 88.8779 155.323 51.3151 -68.657 10.8536 23.5316 -1.47527 -158.733 18.5012 175.355 -137.544 54.5655 172.922 1.10929 -8.93677 -15.4127 -52.8573 36.4592 -174.108 52.479 37.5029 -62.7194 -18.8858 -0.407824 4.27672 -0.217926 5.57422 19.8361 -46.8538 -23.5313 147.694 -7.91817 0.189873 84.4596 67.3989 -2.84604 -4.67835 2.44187 26.1585 71.3798 -170.765 9.69391 138.632 18.5081 -2.05909 -2.16166 -17.2881 -55.1322 -2.87893 4.54134 -35.2557 121.537 170.66 9.60675 -127.635 -16.1032 -18.6719 0.823476 13.1556 -32.4297 -11.107 
